# xmcd
#
# Track frame offsets:
#	150
#	12076
#	26626
#	43741
#	58590
#	75783
#	93641
#	111677
#	130311
#	142237
#	156787
#	173902
#	188630
#	205823
#	223681
#	241717
#
# Disc length: 3471 seconds
#
# Revision: 1
# Processed by: cddbd v1.5.2PL0 Copyright (c) Steve Scherf et al.
# Submitted via: audiograbber 1.83.01
#
DISCID=dd0d8d10
DTITLE=Dixie Chicks - KBA28302
DYEAR=1900
DGENRE=karaoke
TTITLE0=Dixie Chicks - Some Days You Gotta Dance
TTITLE1=Dixie Chicks - If I Fall (You're Going Down With Me)
TTITLE2=Dixie Chicks - You Were Mine
TTITLE3=Dixie Chicks - There's Your Trouble
TTITLE4=Dixie Chicks - Can't Fight The Moonlight
TTITLE5=Dixie Chicks - I Need You
TTITLE6=Dixie Chicks - How Do I Live (Dance Remix)
TTITLE7=Dixie Chicks - Unchained Melody
TTITLE8=Dixie Chicks - Some Days You Gotta Dance
TTITLE9=Dixie Chicks - If I Fall (You're Going Down With Me) (vocal)
TTITLE10=Dixie Chicks - You Were Mine (vocal)
TTITLE11=Dixie Chicks - There's Your Trouble (vocal)
TTITLE12=Dixie Chicks - Can't Fight The Moonlight (vocal)
TTITLE13=Dixie Chicks - I Need You (vocal)
TTITLE14=Dixie Chicks - How Do I Live (Dance Remix) (vocal)
TTITLE15=Dixie Chicks - Unchained Melody (vocal)
EXTD=
EXTT0=
EXTT1=
EXTT2=
EXTT3=
EXTT4=
EXTT5=
EXTT6=
EXTT7=
EXTT8=
EXTT9=
EXTT10=
EXTT11=
EXTT12=
EXTT13=
EXTT14=
EXTT15=
PLAYORDER=
